<?xml version="1.0" encoding="UTF-8" standalone="no"?>
<!-- Created with Inkscape (http://www.inkscape.org/) -->

<svg
   width="1.5881958in"
   height="1.5881958in"
   viewBox="0 0 152.4668 152.4668"
   version="1.1"
   id="svg1"
   xml:space="preserve"
   sodipodi:docname="520logo.svg"
   inkscape:version="1.4 (e7c3feb1, 2024-10-09)"
   xmlns:inkscape="http://www.inkscape.org/namespaces/inkscape"
   xmlns:sodipodi="http://sodipodi.sourceforge.net/DTD/sodipodi-0.dtd"
   xmlns="http://www.w3.org/2000/svg"
   xmlns:svg="http://www.w3.org/2000/svg"><sodipodi:namedview
     id="namedview1"
     pagecolor="#000000"
     bordercolor="#000000"
     borderopacity="0.25"
     inkscape:showpageshadow="2"
     inkscape:pageopacity="0.0"
     inkscape:pagecheckerboard="0"
     inkscape:deskcolor="#d1d1d1"
     inkscape:document-units="in"
     inkscape:zoom="2.5799438"
     inkscape:cx="36.047297"
     inkscape:cy="122.09568"
     inkscape:window-width="1480"
     inkscape:window-height="1141"
     inkscape:window-x="0"
     inkscape:window-y="44"
     inkscape:window-maximized="0"
     inkscape:current-layer="g19" /><defs
     id="defs1" /><g
     id="layer1"
     transform="translate(-331.76659,-451.76659)"><g
       id="g26"
       transform="translate(1.00777,0.99999953)"><g
         id="g25"
         transform="translate(-237.75318,-130.18846)"><path
           id="path23"
           style="fill:#ffffff;stroke-width:1.0583"
           d="m 672.47368,652.28125 v 72 h 40.32 v -72 z m 13.44,12 h 13.44 v 48 h -13.44 z" /><g
           id="g19"
           transform="matrix(1.7992474,0,0,1.0092591,-541.4906,-32.152358)"
           style="fill:#ffffff;fill-opacity:1"><path
             style="fill:none;stroke:#ffffff;stroke-width:7.12401;stroke-linecap:round;stroke-linejoin:round;stroke-dasharray:none;paint-order:normal"
             d="m 625.65186,653.15678 10.12334,25.17958 13.61119,-38.76776 10.01822,50.29876 15.94697,-69.27925 11.0101,48.00513 7.04863,-37.73002"
             id="path3"
             sodipodi:nodetypes="ccccccc" /></g><path
           style="fill:#ffffff;stroke-width:1.05829"
           d="m 624.58541,694.28094 h 26.88 v -6 h -26.88 v -12 h 40.32 v 30 h -26.88 v 6 h 26.88 v 12 h -40.32 z"
           id="path22" /><path
           style="fill:#ffffff;stroke-width:1.0583"
           d="m 577.01576,712.28094 h 26.88 v -12 h -26.88 v -36 h 40.32 v 12 h -26.88 v 12 h 26.88 v 36 h -40.32 z"
           id="path1" /></g></g></g></svg>
